v -0.5 -0.5 -0.5
v 0.5 -0.5 -0.5
v -0.5 0.5 -0.5
v -0.5 -0.5 0.5
v 0.5 0.5 -0.5
v -0.5 0.5 0.5
v 0.5 -0.5 0.5
v 0.5 0.5 0.5

vt 0.001 0.5
vt 0.25 0.5
vt 0.5 0.5
vt 0.75 0.5
vt 0.999 0.5
vt 0.001 0.75
vt 0.25 0.75
vt 0.5 0.75
vt 0.75 0.75
vt 0.999 0.75
vt 0.25 0.999
vt 0.5 0.999
vt 0.25 0.25
vt 0.5 0.25

vn 0 0 1
vn 0 0 -1
vn 0 1 0
vn 0 -1 0
vn 1 0 0
vn -1 0 0

f 4/2/1 7/3/1 6/7/1
f 7/3/1 8/8/1 6/7/1
f 7/3/5 2/4/5 8/8/5
f 2/4/5 5/9/5 8/8/5
f 2/4/2 1/5/2 5/9/2
f 1/5/2 3/10/2 5/9/2
f 1/1/6 4/2/6 3/6/6
f 4/2/6 6/7/6 3/6/6
f 6/7/3 8/8/3 3/11/3
f 8/8/3 5/12/3 3/11/3
f 7/3/4 4/2/4 2/14/4
f 4/2/4 1/13/4 2/14/4